# xmcd
#
# Track frame offsets:
#	150
#	20198
#	47948
#	61678
#	86241
#	99959
#	114195
#	128728
#	145948
#	157876
#	169852
#	185686
#	196188
#	212875
#	225124
#	243401
#
# Disc length: 3400
#
# Revision: 2
# Processed by: cddbd v1.5.1PL0 Copyright (c) Steve Scherf et al.
# Submitted via: EasyCDDAExtractor 4.5.0.2
# Normalized: r0:TDELIM( - ),TSWAP
#
DISCID=d20d4610
DTITLE=LOVE Volume 1
DYEAR=1900
DGENRE=
TTITLE0=HAROLD MELVIN and THE BLUE NOTES - IF YOU DON'T KNOW ME BY NOW
TTITLE1=ROSE ROYCE - WISHING ON A STAR
TTITLE2=THE THREE DEGREES - WHEN WILL I SEE YOU AGAIN
TTITLE3=SISTER SLEDGE - TRUE LOVE
TTITLE4=FATS DOMINO - BLUEBERRY HILL
TTITLE5=JOHN TRAVOLTA - NEVER GONNA FALL IN LOVE
TTITLE6=AL JARREAU - TIRED OF BEING ALONE
TTITLE7=THE FORTUNES - DON'T THROW YOOUR LOVE AWAY
TTITLE8=PERCY SLEDGE - WHEN A MAN LOVES A WOMAN
TTITLE9=THE TROGGS - LOVE IS ALL AROUND
TTITLE10=MARILYN MONROE - DIAMONDS ARE A GIRLS BEST FRIEND
TTITLE11=TOM JONES - FEVER
TTITLE12=GLORIA GAYNOR - I WILL SURVIVE
TTITLE13=THE PLATTERS - ONLY YOU
TTITLE14=HATTIE LITTLES - TOUCH ME IN THE MORNING
TTITLE15=DAVE BERRY - THE CRYING GAME
EXTD=
EXTT0=
EXTT1=
EXTT2=
EXTT3=
EXTT4=
EXTT5=
EXTT6=
EXTT7=
EXTT8=
EXTT9=
EXTT10=
EXTT11=
EXTT12=
EXTT13=
EXTT14=
EXTT15=
PLAYORDER=
